<svg width="8.345703" height="9.000000" viewBox="0 0 8.3457 9" fill="none" xmlns="http://www.w3.org/2000/svg" xmlns:xlink="http://www.w3.org/1999/xlink">
	<desc>
			Created with Pixso.
	</desc>
	<defs/>
	<path id="Shape" d="M4.16 0C4.02 0 3.87 0.05 3.77 0.17L0.12 4.17C-0.07 4.37 -0.04 4.69 0.17 4.87C0.39 5.05 0.72 5.03 0.91 4.82L3.65 1.82L3.65 8.5C3.65 8.77 3.88 9 4.17 9C4.46 9 4.69 8.77 4.69 8.5L4.69 1.83L7.43 4.83C7.62 5.03 7.95 5.05 8.16 4.87C8.38 4.69 8.4 4.37 8.21 4.16L4.6 0.21C4.5 0.08 4.35 0 4.17 0L4.16 0Z" fill="#3DD598" fill-opacity="1.000000" fill-rule="nonzero"/>
</svg>
