<svg width="15.572266" height="16.472656" viewBox="0 0 15.5723 16.4727" fill="none" xmlns="http://www.w3.org/2000/svg" xmlns:xlink="http://www.w3.org/1999/xlink">
	<desc>
			Created with Pixso.
	</desc>
	<defs/>
	<path id="Path_33955" d="M4.46 15.87C2.02 15.87 0.15 14.99 0.68 11.45L1.3 6.65C1.63 4.88 2.75 4.2 3.75 4.2L11.84 4.2C12.84 4.2 13.9 4.93 14.28 6.65L14.9 11.45C15.35 14.59 13.53 15.87 11.09 15.87L4.46 15.87Z" stroke="#FFFFFF" stroke-opacity="1.000000" stroke-width="1.192499" stroke-linejoin="round"/>
	<g style="mix-blend-mode:normal">
		<path id="Path_33956" d="M11.2 4.03C11.2 2.13 9.66 0.59 7.77 0.59C6.85 0.59 5.98 0.95 5.33 1.59C4.68 2.24 4.32 3.11 4.32 4.03L4.32 4.03" stroke="#FFFFFF" stroke-opacity="1.000000" stroke-width="1.192499" stroke-linejoin="round" stroke-linecap="round"/>
	</g>
	<path id="Line_192" d="M10.13 7.6L10.09 7.6" stroke="#FFFFFF" stroke-opacity="1.000000" stroke-width="1.192499" stroke-linejoin="round" stroke-linecap="round"/>
	<path id="Line_193" d="M5.49 7.6L5.45 7.6" stroke="#FFFFFF" stroke-opacity="1.000000" stroke-width="1.192499" stroke-linejoin="round" stroke-linecap="round"/>
</svg>
