<svg width="42.173828" height="27.000000" viewBox="0 0 42.1738 27" fill="none" xmlns="http://www.w3.org/2000/svg" xmlns:xlink="http://www.w3.org/1999/xlink">
	<desc>
			Created with Pixso.
	</desc>
	<defs/>
	<path id="Vector" d="M0 0L0 11.9L11.9 11.9L11.9 0L0 0ZM8.3 8.39C8.08 8.69 7.77 8.92 7.43 9.05C7 9.22 6.54 9.3 6.08 9.28L3.4 9.28L3.4 2.6L5.91 2.6C6.65 2.6 7.22 2.75 7.62 3.05C8.03 3.34 8.23 3.78 8.23 4.33C8.24 4.63 8.16 4.91 8.01 5.15C7.85 5.4 7.64 5.58 7.37 5.71C7.73 5.81 8.04 6.03 8.27 6.33C8.49 6.62 8.59 6.99 8.58 7.37C8.61 7.73 8.5 8.09 8.3 8.39ZM6.6 5.12C6.79 4.96 6.89 4.73 6.88 4.48C6.88 3.95 6.51 3.68 5.8 3.68L4.77 3.68L4.77 5.34L5.8 5.34C6.14 5.35 6.41 5.27 6.6 5.12ZM5.96 6.41L4.76 6.41L4.76 8.22L5.95 8.22C6.35 8.22 6.66 8.14 6.88 7.99C7.1 7.84 7.22 7.6 7.2 7.33C7.2 6.7 6.79 6.39 5.96 6.41ZM14.87 0L14.87 11.9L26.78 11.9L26.78 0L14.87 0ZM23.17 8.39C22.96 8.69 22.65 8.92 22.31 9.05C21.88 9.22 21.42 9.3 20.95 9.28L18.27 9.28L18.27 2.6L20.78 2.6C21.53 2.6 22.09 2.75 22.51 3.05C22.92 3.34 23.12 3.78 23.12 4.33C23.13 4.63 23.05 4.91 22.91 5.15C22.74 5.4 22.53 5.58 22.26 5.71C22.62 5.81 22.93 6.03 23.16 6.33C23.38 6.62 23.49 6.99 23.47 7.37C23.49 7.73 23.38 8.09 23.17 8.39ZM21.47 5.12C21.66 4.96 21.77 4.73 21.76 4.48C21.76 3.95 21.39 3.68 20.68 3.68L19.65 3.68L19.65 5.34L20.68 5.34C21.01 5.35 21.28 5.27 21.47 5.12ZM20.84 6.41L19.64 6.41L19.64 8.22L20.83 8.22C21.23 8.22 21.54 8.14 21.76 7.99C21.97 7.84 22.09 7.6 22.08 7.33C22.08 6.7 21.68 6.39 20.84 6.41ZM29.75 11.9L41.66 11.9L41.66 0L29.75 0L29.75 11.9ZM38.29 8.86C38 9.03 37.66 9.15 37.34 9.23C36.96 9.32 36.57 9.36 36.19 9.36C35.7 9.38 35.2 9.3 34.74 9.13C34.34 8.99 33.96 8.76 33.65 8.46C33.35 8.15 33.11 7.78 32.98 7.38C32.81 6.92 32.73 6.43 32.73 5.95C32.72 5.46 32.81 4.99 32.98 4.54C33.14 4.14 33.37 3.78 33.68 3.46C34 3.15 34.38 2.92 34.78 2.78C35.24 2.61 35.74 2.53 36.23 2.53C36.58 2.53 36.93 2.57 37.28 2.64C37.61 2.71 37.92 2.83 38.2 2.98L38.2 4.29C37.94 4.11 37.66 3.99 37.36 3.9C37.05 3.8 36.73 3.76 36.41 3.76C36 3.75 35.59 3.84 35.23 4.02C34.91 4.18 34.65 4.45 34.49 4.76C34.3 5.12 34.22 5.53 34.23 5.95C34.22 6.35 34.3 6.77 34.49 7.14C34.65 7.46 34.91 7.72 35.22 7.88C35.58 8.05 35.97 8.15 36.38 8.14C37.05 8.14 37.71 7.95 38.29 7.6L38.29 8.86Z" fill="#000000" fill-opacity="1.000000" fill-rule="nonzero"/>
	<path id="Vector" d="M13.33 24.92L18.53 24.92L18.53 26.78L11.09 26.78L11.09 16.36L18.26 16.36L18.26 18.22L13.33 18.22L13.33 20.49L17.71 20.49L17.71 22.35L13.33 22.35L13.33 24.92Z" fill="#EB0000" fill-opacity="1.000000" fill-rule="nonzero"/>
	<path id="Vector" d="M31.22 16.36L33.62 16.36C33.22 18.11 32.78 19.87 32.33 21.62C31.87 23.35 31.4 25.06 30.9 26.78L28.52 26.78C27.86 24.44 27.24 22.08 26.63 19.73C26.05 22.09 25.43 24.44 24.77 26.78L22.39 26.78C21.89 25.06 21.42 23.35 20.96 21.62C20.5 19.88 20.07 18.13 19.66 16.36L22.11 16.36C22.35 17.71 22.61 19.06 22.88 20.41C23.15 21.76 23.43 23.08 23.74 24.39C24.39 21.87 25.01 19.34 25.59 16.8L27.78 16.8C28.36 19.29 28.96 21.76 29.61 24.23C29.91 22.93 30.19 21.62 30.46 20.33C30.73 19 30.98 17.68 31.22 16.36Z" fill="#EB0000" fill-opacity="1.000000" fill-rule="nonzero"/>
	<path id="Vector" d="M42.17 23.71C42.17 24.4 41.99 25 41.66 25.48C41.32 25.97 40.82 26.35 40.18 26.6C39.54 26.86 38.77 27 37.86 27C37.29 27 36.71 26.93 36.16 26.81C35.59 26.69 35.05 26.48 34.55 26.21L34.55 24.2C35.55 24.82 36.69 25.15 37.86 25.15C38.52 25.15 39.02 25.04 39.37 24.81C39.7 24.62 39.9 24.25 39.89 23.88C39.89 23.58 39.81 23.34 39.63 23.17C39.44 22.99 39.21 22.85 38.96 22.77C38.65 22.66 38.33 22.57 38.01 22.49C37.5 22.37 36.98 22.22 36.5 22.01C36.11 21.87 35.73 21.65 35.39 21.39C35.09 21.16 34.86 20.87 34.7 20.53C34.54 20.15 34.46 19.73 34.47 19.33C34.47 18.67 34.64 18.1 34.97 17.63C35.34 17.13 35.82 16.75 36.39 16.53C37 16.28 37.73 16.14 38.58 16.14C39.13 16.14 39.67 16.21 40.21 16.33C40.71 16.44 41.2 16.61 41.66 16.84L41.66 18.83C41.21 18.56 40.71 18.36 40.21 18.22C39.68 18.07 39.13 18 38.59 18C38 18 37.54 18.11 37.21 18.32C36.9 18.49 36.71 18.83 36.73 19.19C36.71 19.44 36.8 19.66 36.96 19.84C37.15 20.02 37.38 20.15 37.62 20.23C37.9 20.34 38.24 20.43 38.63 20.53C39.13 20.65 39.59 20.8 40.01 20.95C40.41 21.08 40.79 21.29 41.14 21.53C41.47 21.76 41.72 22.07 41.9 22.42C42.07 22.76 42.17 23.19 42.17 23.71Z" fill="#EB0000" fill-opacity="1.000000" fill-rule="nonzero"/>
	<path id="Vector" d="M9.03 16.36L9.03 26.78L6.76 26.78C6 25.56 5.23 24.35 4.46 23.13C3.71 21.95 2.94 20.76 2.17 19.58L2.17 26.78L0 26.78L0 16.36L2.26 16.36C3.05 17.53 3.82 18.71 4.58 19.89C5.35 21.08 6.11 22.28 6.87 23.49L6.87 16.36L9.03 16.36Z" fill="#EB0000" fill-opacity="1.000000" fill-rule="nonzero"/>
</svg>
