<svg width="11.044922" height="7.257812" viewBox="0 0 11.0449 7.25781" fill="none" xmlns="http://www.w3.org/2000/svg" xmlns:xlink="http://www.w3.org/1999/xlink">
	<desc>
			Created with Pixso.
	</desc>
	<defs/>
	<path id="Vector" d="M0.47 3.9L2.15 3.9L3.53 0.81C3.58 0.7 3.66 0.61 3.75 0.55C3.85 0.49 3.96 0.46 4.08 0.47C4.19 0.48 4.3 0.52 4.39 0.59C4.48 0.67 4.54 0.77 4.58 0.88L6.25 6.36C6.29 6.47 6.35 6.57 6.43 6.64C6.51 6.72 6.62 6.76 6.73 6.78C6.83 6.79 6.94 6.77 7.04 6.72C7.14 6.66 7.22 6.58 7.27 6.48L8.89 3.54L10.57 3.54" stroke="#FFFFFF" stroke-opacity="1.000000" stroke-width="0.946761" stroke-linejoin="round" stroke-linecap="round"/>
</svg>
