<svg width="17.308594" height="13.347656" viewBox="0 0 17.3086 13.3477" fill="none" xmlns="http://www.w3.org/2000/svg" xmlns:xlink="http://www.w3.org/1999/xlink">
	<desc>
			Created with Pixso.
	</desc>
	<defs/>
	<path id="Combined-Shape" d="M8.65 8.27L8.74 8.27L8.94 8.27C10.48 8.28 13.98 8.44 13.98 10.82C13.98 13.18 10.6 13.33 8.96 13.34L8.36 13.34C6.83 13.33 3.32 13.18 3.32 10.8C3.32 8.44 6.83 8.28 8.36 8.27L8.56 8.27C8.59 8.27 8.62 8.27 8.65 8.27ZM8.65 9.47C6.76 9.47 4.51 9.7 4.51 10.8C4.51 11.88 6.63 12.14 8.48 12.15L8.65 12.15C10.54 12.15 12.79 11.92 12.79 10.82C12.79 9.7 10.54 9.47 8.65 9.47ZM14.97 7.95C16.9 8.24 17.3 9.15 17.3 9.85C17.3 10.29 17.13 11.08 16 11.51C15.93 11.53 15.86 11.55 15.78 11.55C15.54 11.55 15.32 11.4 15.23 11.16C15.11 10.86 15.26 10.51 15.57 10.39C16.11 10.19 16.11 9.96 16.11 9.85C16.11 9.5 15.67 9.26 14.8 9.13C14.47 9.08 14.25 8.78 14.29 8.45C14.34 8.13 14.65 7.91 14.97 7.95ZM3 8.45C3.05 8.78 2.83 9.08 2.5 9.13C1.63 9.26 1.19 9.5 1.19 9.85C1.19 9.96 1.19 10.19 1.73 10.39C2.03 10.51 2.19 10.86 2.07 11.16C1.98 11.4 1.75 11.55 1.51 11.55C1.44 11.55 1.37 11.53 1.3 11.51C0.16 11.08 0 10.28 0 9.85C0 9.15 0.4 8.24 2.33 7.95C2.66 7.91 2.96 8.13 3 8.45ZM8.65 0C10.65 0 12.28 1.62 12.28 3.63C12.28 5.63 10.65 7.26 8.65 7.26L8.63 7.26C7.66 7.26 6.75 6.88 6.07 6.19C5.39 5.5 5.01 4.59 5.02 3.63C5.02 1.62 6.65 0 8.65 0ZM8.65 1.19C7.31 1.19 6.21 2.28 6.21 3.63C6.21 4.28 6.46 4.89 6.91 5.35C7.37 5.81 7.98 6.07 8.63 6.07L8.65 6.66L8.65 6.07C10 6.07 11.09 4.97 11.09 3.63C11.09 2.28 10 1.19 8.65 1.19ZM13.57 0.77C14.97 1 15.98 2.2 15.98 3.62C15.98 5.04 14.91 6.27 13.5 6.47C13.48 6.47 13.45 6.47 13.42 6.47C13.13 6.47 12.87 6.26 12.83 5.96C12.78 5.63 13.01 5.33 13.34 5.28C14.16 5.17 14.79 4.45 14.79 3.61C14.79 2.79 14.2 2.08 13.38 1.95C13.05 1.9 12.83 1.59 12.89 1.26C12.94 0.94 13.24 0.72 13.57 0.77ZM4.41 1.26C4.47 1.59 4.25 1.9 3.92 1.95C3.1 2.08 2.51 2.79 2.51 3.62C2.51 4.45 3.14 5.17 3.96 5.28C4.29 5.33 4.51 5.63 4.47 5.96C4.43 6.26 4.17 6.47 3.88 6.47C3.85 6.47 3.83 6.47 3.8 6.47C2.39 6.27 1.32 5.04 1.32 3.62C1.32 2.2 2.33 1 3.73 0.77C4.06 0.72 4.36 0.94 4.41 1.26Z" fill="#202021" fill-opacity="1.000000" fill-rule="evenodd"/>
</svg>
