<svg width="12.623047" height="12.623047" viewBox="0 0 12.623 12.623" fill="none" xmlns="http://www.w3.org/2000/svg" xmlns:xlink="http://www.w3.org/1999/xlink">
	<desc>
			Created with Pixso.
	</desc>
	<defs/>
	<g opacity="0.000000" style="mix-blend-mode:normal">
		<path id="Fill 1" d="M9.26 0L3.36 0C1.21 0 0 1.21 0 3.36L0 9.25C0 11.4 1.21 12.62 3.36 12.62L9.26 12.62C11.41 12.62 12.62 11.4 12.62 9.25L12.62 3.36C12.62 1.21 11.41 0 9.26 0Z" fill="#0A043C" fill-opacity="1.000000" fill-rule="nonzero"/>
	</g>
	<path id="Fill 4" d="M3.38 4.65C3.1 4.65 2.86 4.88 2.86 5.17L2.86 9.51C2.86 9.8 3.1 10.03 3.38 10.03C3.68 10.03 3.91 9.8 3.91 9.51L3.91 5.17C3.91 4.88 3.68 4.65 3.38 4.65Z" fill="#0A043C" fill-opacity="1.000000" fill-rule="nonzero"/>
	<path id="Fill 6" d="M6.33 2.58C6.04 2.58 5.81 2.81 5.81 3.1L5.81 9.51C5.81 9.8 6.04 10.03 6.33 10.03C6.62 10.03 6.86 9.8 6.86 9.51L6.86 3.1C6.86 2.81 6.62 2.58 6.33 2.58Z" fill="#0A043C" fill-opacity="1.000000" fill-rule="nonzero"/>
	<path id="Fill 8" d="M9.24 6.94C8.94 6.94 8.71 7.17 8.71 7.46L8.71 9.51C8.71 9.8 8.94 10.03 9.23 10.03C9.52 10.03 9.76 9.8 9.76 9.51L9.76 7.46C9.76 7.17 9.52 6.94 9.24 6.94Z" fill="#0A043C" fill-opacity="1.000000" fill-rule="nonzero"/>
</svg>
