<svg width="37.542969" height="37.542969" viewBox="0 0 37.543 37.543" fill="none" xmlns="http://www.w3.org/2000/svg" xmlns:xlink="http://www.w3.org/1999/xlink">
	<desc>
			Created with Pixso.
	</desc>
	<defs/>
	<g opacity="0.100000" style="mix-blend-mode:normal">
		<path id="Shape Copy 3" d="" fill="#D8D8D8" fill-opacity="0" fill-rule="nonzero"/>
		<path id="Shape Copy 3" d="M36.77 18.77C36.77 8.83 28.71 0.77 18.77 0.77C8.83 0.77 0.77 8.83 0.77 18.77C0.77 28.71 8.83 36.77 18.77 36.77C28.71 36.77 36.77 28.71 36.77 18.77Z" stroke="#0062FF" stroke-opacity="1.000000" stroke-width="1.540000"/>
	</g>
	<path id="Shape" d="M24.77 16.1L12.77 16.1L12.77 18.1C12.77 18.47 13.06 18.77 13.43 18.77L24.1 18.77C24.47 18.77 24.77 18.47 24.77 18.1L24.77 16.1ZM15.43 14.77C15.43 13.66 16.33 12.77 17.43 12.77L20.1 12.77C21.2 12.77 22.1 13.66 22.1 14.77L24.77 14.77C25.5 14.77 26.1 15.36 26.1 16.1L26.1 22.77C26.1 24.24 24.91 25.43 23.43 25.43L14.1 25.43C12.63 25.43 11.43 24.24 11.43 22.77L11.43 16.1C11.43 15.36 12.03 14.77 12.77 14.77L15.43 14.77ZM16.77 14.77L20.77 14.77C20.77 14.4 20.47 14.1 20.1 14.1L17.43 14.1C17.06 14.1 16.77 14.4 16.77 14.77ZM16.77 20.1L13.43 20.1C13.2 20.1 12.97 20.06 12.77 19.99L12.77 22.77C12.77 23.5 13.36 24.1 14.1 24.1L23.43 24.1C24.17 24.1 24.77 23.5 24.77 22.77L24.77 19.99C24.56 20.06 24.33 20.1 24.1 20.1L20.77 20.1L20.77 21.17C20.77 21.68 20.35 22.1 19.83 22.1L17.7 22.1C17.18 22.1 16.77 21.68 16.77 21.17L16.77 20.1ZM18.1 20.77L19.43 20.77L19.43 20.1L18.1 20.1L18.1 20.77Z" fill="#0062FF" fill-opacity="1.000000" fill-rule="evenodd"/>
	<path id="Shape Copy 4" d="M0.01 18.79L0 18.77C0 18.33 0.33 18 0.77 18C1.2 18 1.54 18.33 1.54 18.77L1.52 18.79L0.01 18.79ZM18.79 1.52L18.77 1.54C18.33 1.54 18 1.2 18 0.77C18 0.33 18.33 0 18.77 0L18.79 0.01L18.79 1.52Z" fill="#D8D8D8" fill-opacity="0" fill-rule="nonzero"/>
	<path id="Shape Copy 4" d="M0.77 18.77C0.77 28.71 8.83 36.77 18.77 36.77C28.71 36.77 36.77 28.71 36.77 18.77C36.77 8.83 28.71 0.77 18.77 0.77" stroke="#0062FF" stroke-opacity="1.000000" stroke-width="1.542857" stroke-linejoin="round" stroke-linecap="round"/>
</svg>
