<svg width="69.527344" height="18.197266" viewBox="0 0 69.5273 18.1973" fill="none" xmlns="http://www.w3.org/2000/svg" xmlns:xlink="http://www.w3.org/1999/xlink">
	<desc>
			Created with Pixso.
	</desc>
	<defs/>
	<path id="Vector" d="M6.71 1.69L8.23 1.69C9.16 1.55 10.1 1.67 10.97 2.04C12.05 2.69 12.84 3.74 13.16 4.96C13.39 5.6 13.39 5.6 13.93 5.38L14.36 5.38L14.36 0.3L0.03 0.3L0.03 1.2L0.62 1.2C0.87 1.2 1.12 1.25 1.36 1.36C1.59 1.47 1.79 1.63 1.95 1.83C2.5 2.71 2.59 3.7 2.59 8.84C2.59 14.3 2.47 15.64 1.95 16.32C1.82 16.49 1.66 16.64 1.47 16.74C1.27 16.84 1.06 16.9 0.84 16.9C0.03 17.05 0.03 17.04 0.03 17.4C-0.02 17.52 -0.02 17.65 0.03 17.77L9.07 17.77C9.13 17.65 9.16 17.52 9.16 17.39C9.16 17.26 9.13 17.13 9.07 17.01C8.85 16.95 8.63 16.91 8.4 16.88C8.16 16.85 7.92 16.8 7.68 16.73C7.34 16.48 7.08 16.15 6.91 15.77C6.74 15.39 6.67 14.97 6.71 14.55C6.57 13.67 6.51 12.06 6.51 10.72L6.51 9.66L7.04 9.66C7.71 9.64 8.37 9.72 9.02 9.88C9.33 10.07 9.59 10.33 9.79 10.63C9.99 10.94 10.12 11.28 10.17 11.64L10.29 12.06L11.1 12.06L11.1 6.14L10.35 6.14L10.23 6.71C10.18 7.08 10.05 7.43 9.83 7.74C9.62 8.05 9.34 8.3 9.02 8.48C8.7 8.57 8.37 8.59 8.04 8.54L6.51 8.54L6.51 7.1C6.51 5.6 6.59 2.45 6.64 1.96L6.71 1.69ZM69.22 12.28C68.58 11.27 67.6 10.52 66.45 10.19C65.57 9.91 64.75 9.46 64.06 8.85C63.9 8.7 63.79 8.51 63.72 8.3C63.65 8.1 63.64 7.88 63.67 7.66C63.67 7.24 63.84 6.84 64.14 6.54C64.34 6.33 64.6 6.17 64.88 6.1C65.16 6.02 65.46 6.02 65.74 6.1C66.33 6.27 66.85 6.59 67.27 7.03C67.69 7.47 67.98 8.02 68.11 8.61C68.32 9.21 68.35 9.21 68.73 9.05L68.98 8.96L68.98 5.63L68.8 5.55C67.49 5.09 66.09 4.9 64.7 4.99C63.5 5.02 62.36 5.5 61.5 6.33C61.1 6.69 60.8 7.14 60.59 7.64C60.39 8.14 60.31 8.67 60.33 9.21C60.34 10.03 60.67 10.82 61.24 11.4C61.88 12.03 62.66 12.49 63.51 12.74C65.58 13.55 66.18 14.07 66.18 15.02C66.19 15.42 66.07 15.81 65.82 16.13C65.58 16.45 65.24 16.67 64.85 16.77C64.38 16.87 63.9 16.87 63.43 16.77C62.82 16.53 62.28 16.15 61.84 15.66C61.41 15.17 61.1 14.59 60.93 13.95L60.76 13.53L60.52 13.53C60.41 13.53 60.29 13.56 60.19 13.61L60.05 13.61L60.05 17.4L60.28 17.4C61.18 17.7 62.11 17.9 63.06 18.01L64.39 18.01C64.97 18.06 65.56 18 66.12 17.85C66.83 17.72 67.5 17.41 68.05 16.94C68.6 16.47 69.02 15.86 69.27 15.18C69.43 14.8 69.51 14.39 69.51 13.98C69.56 13.4 69.46 12.81 69.22 12.28ZM56.63 5.38C55.83 5.04 54.97 4.88 54.1 4.9C53.24 4.92 52.38 5.12 51.6 5.5C50.86 5.86 50.21 6.37 49.68 7C49.16 7.62 48.77 8.36 48.54 9.14C48.25 10 48.13 10.91 48.18 11.82C48.17 12.31 48.21 12.8 48.3 13.29C48.51 14.48 49.09 15.57 49.95 16.43C50.8 17.28 51.9 17.85 53.09 18.07C53.87 18.16 54.66 18.16 55.43 18.07C56.24 17.92 57.01 17.63 57.7 17.2C58.28 16.88 58.76 16.42 59.12 15.86C59.09 15.78 59.06 15.69 59 15.62C58.94 15.55 58.88 15.49 58.8 15.45C58.65 15.5 58.5 15.58 58.37 15.68C57.71 16.11 56.92 16.33 56.13 16.3C55.6 16.34 55.07 16.26 54.58 16.06C54.08 15.87 53.64 15.57 53.28 15.18C53 14.92 52.77 14.61 52.6 14.27C52.18 13.44 51.96 12.53 51.94 11.6L51.94 11.08L59.34 11.08L59.34 10.81C59.36 10.55 59.36 10.28 59.34 10.01C59.34 9.07 59.09 8.14 58.61 7.33C58.14 6.52 57.45 5.84 56.63 5.38ZM52.91 10L51.97 10L51.97 9.21C52.28 7.19 53.04 5.99 53.98 5.99C54.91 5.99 55.31 7.18 55.49 9.36L55.49 9.97L54.68 9.97L52.91 10ZM33.7 4.94C33.24 4.92 32.78 5.02 32.36 5.22C31.46 5.66 30.73 6.38 30.29 7.29L30.12 7.61L30.12 4.94L30.05 4.94C29.89 4.94 24.95 5.93 24.79 5.99C24.63 6.06 24.68 6.07 24.68 6.31C24.68 6.55 24.68 6.59 24.79 6.61L25.31 6.71C25.46 6.72 25.6 6.75 25.73 6.82C25.86 6.89 25.97 6.98 26.06 7.1C26.39 7.54 26.46 8.32 26.46 11.62C26.53 13.1 26.46 14.59 26.27 16.06C26.23 16.29 26.12 16.49 25.95 16.64C25.79 16.8 25.58 16.9 25.35 16.93L24.9 17.02L24.73 17.02L24.73 17.4C24.68 17.52 24.68 17.66 24.73 17.79L32.19 17.79L32.19 17.4C32.22 17.27 32.22 17.14 32.19 17.01C31.74 16.99 31.29 16.94 30.86 16.84C30.62 16.71 30.42 16.52 30.29 16.28C30.17 16.04 30.12 15.77 30.15 15.5C30.04 14.73 29.99 12.46 30.01 10.72C30.04 8.98 30.01 8.88 30.16 8.76C30.61 8.41 31.16 8.24 31.72 8.26C32.25 8.27 32.77 8.41 33.25 8.65C33.41 8.74 33.58 8.81 33.77 8.85C33.77 8.85 35.1 5.62 35.1 5.47C34.93 5.27 34.71 5.12 34.47 5.03C34.22 4.93 33.96 4.9 33.7 4.94ZM24.7 10.55C24.65 9.59 24.38 8.66 23.9 7.84C23.42 7.01 22.75 6.31 21.95 5.79C20.99 5.28 19.93 4.99 18.84 4.96C17.76 4.93 16.68 5.16 15.7 5.62C14.31 6.35 13.26 7.6 12.77 9.09C12.27 10.76 12.27 12.55 12.77 14.22C13.03 15.13 13.53 15.97 14.2 16.64C15.04 17.46 16.12 17.98 17.29 18.13C18.03 18.2 18.78 18.2 19.53 18.13C19.8 18.09 20.08 18.03 20.34 17.96C21.43 17.66 22.41 17.05 23.16 16.21C23.92 15.37 24.42 14.33 24.6 13.22C24.74 12.33 24.77 11.44 24.7 10.55ZM19.14 17.22C17.81 17.63 16.8 16.33 16.47 13.61C16.35 12.18 16.35 10.74 16.47 9.32C16.74 7.13 17.42 6.02 18.47 6.02C18.69 6.01 18.9 6.04 19.09 6.13C19.29 6.22 19.46 6.35 19.6 6.51C20.49 7.41 20.93 9.18 20.93 11.86C21.04 13.37 20.81 14.88 20.24 16.29C19.99 16.7 19.6 17.01 19.14 17.16L19.14 17.22ZM43.18 5.2C42.81 5.16 42.42 5.16 42.05 5.2C41.33 5.2 40.61 5.36 39.95 5.66L39.54 5.83L39.54 2.93C39.61 1.95 39.61 0.97 39.54 0C39.38 0 34.27 0.97 34.19 1.01C34.16 1.11 34.16 1.22 34.19 1.32C34.19 1.6 34.19 1.58 34.8 1.72C34.96 1.76 35.13 1.82 35.28 1.91C35.54 2.15 35.71 2.47 35.77 2.83C35.92 3.84 35.97 4.87 35.92 5.9L35.92 17.63L36.28 17.71C36.81 17.83 38.32 18.08 38.82 18.13C39.8 18.21 40.79 18.21 41.78 18.13C42.88 18.02 43.92 17.61 44.8 16.95C45.68 16.29 46.36 15.4 46.78 14.38C47.02 13.72 47.19 13.04 47.28 12.35C47.36 11.41 47.33 10.46 47.19 9.53C47.05 8.49 46.58 7.51 45.87 6.74C45.15 5.96 44.21 5.43 43.18 5.2ZM39.68 17C39.68 16.82 39.55 10.97 39.58 8.64L39.58 6.81L39.96 6.71C40.23 6.68 40.49 6.68 40.75 6.71C41.04 6.68 41.33 6.75 41.58 6.9C42.08 7.24 42.49 7.7 42.79 8.22C43.09 8.75 43.26 9.34 43.3 9.95C43.4 10.92 43.4 11.9 43.3 12.87C43.22 14.28 42.68 15.63 41.75 16.7C41.49 16.95 41.16 17.12 40.81 17.18C40.54 17.23 40.26 17.23 39.99 17.18C39.74 17.18 39.74 17.1 39.74 17L39.68 17Z" fill="#33629A" fill-opacity="1.000000" fill-rule="nonzero"/>
</svg>
