<svg width="37.542969" height="37.542969" viewBox="0 0 37.543 37.543" fill="none" xmlns="http://www.w3.org/2000/svg" xmlns:xlink="http://www.w3.org/1999/xlink">
	<desc>
			Created with Pixso.
	</desc>
	<defs/>
	<g opacity="0.100000" style="mix-blend-mode:normal">
		<path id="Shape" d="" fill="#D8D8D8" fill-opacity="0" fill-rule="nonzero"/>
		<path id="Shape" d="M36.77 18.77C36.77 8.83 28.71 0.77 18.77 0.77C8.83 0.77 0.77 8.83 0.77 18.77C0.77 28.71 8.83 36.77 18.77 36.77C28.71 36.77 36.77 28.71 36.77 18.77Z" stroke="#0056FE" stroke-opacity="1.000000" stroke-width="1.542857"/>
	</g>
	<path id="Shape" d="M23.92 14.53C24.87 15.68 25.43 17.16 25.43 18.77C25.43 22.45 22.45 25.43 18.77 25.43C15.08 25.43 12.1 22.45 12.1 18.77C12.1 15.08 15.08 12.1 18.77 12.1C20.36 12.1 21.83 12.66 22.97 13.59L23.34 13.23L23.51 12.3C23.58 11.93 23.93 11.7 24.29 11.76C24.66 11.83 24.89 12.18 24.83 12.54L24.79 12.75L24.99 12.71C25.35 12.64 25.7 12.88 25.77 13.24C25.84 13.6 25.6 13.95 25.24 14.02L24.25 14.2L23.92 14.53ZM22.02 14.54C21.12 13.85 19.99 13.43 18.77 13.43C15.82 13.43 13.43 15.82 13.43 18.77C13.43 21.71 15.82 24.1 18.77 24.1C21.71 24.1 24.1 21.71 24.1 18.77C24.1 17.53 23.68 16.39 22.97 15.48L22.02 16.43C22.49 17.09 22.77 17.9 22.77 18.77C22.77 20.98 20.98 22.77 18.77 22.77C16.56 22.77 14.77 20.98 14.77 18.77C14.77 16.56 16.56 14.77 18.77 14.77C19.63 14.77 20.42 15.04 21.07 15.5L22.02 14.54ZM20.11 16.46C19.71 16.23 19.25 16.1 18.77 16.1C17.29 16.1 16.1 17.29 16.1 18.77C16.1 20.24 17.29 21.43 18.77 21.43C20.24 21.43 21.43 20.24 21.43 18.77C21.43 18.26 21.3 17.8 21.06 17.4L20.05 18.4C20.08 18.52 20.1 18.64 20.1 18.77C20.1 19.5 19.5 20.1 18.77 20.1C18.03 20.1 17.43 19.5 17.43 18.77C17.43 18.03 18.03 17.43 18.77 17.43C18.88 17.43 18.99 17.45 19.09 17.47L20.11 16.46Z" fill="#0056FE" fill-opacity="1.000000" fill-rule="evenodd"/>
	<path id="Shape" d="M0.01 18.79L0 18.77C0 18.33 0.33 18 0.77 18C1.2 18 1.54 18.33 1.54 18.77L1.52 18.79L0.01 18.79ZM18.79 1.52L18.77 1.54C18.33 1.54 18 1.2 18 0.77C18 0.33 18.33 0 18.77 0L18.79 0.01L18.79 1.52Z" fill="#D8D8D8" fill-opacity="0" fill-rule="nonzero"/>
	<path id="Shape" d="M0.77 18.77C0.77 28.71 8.83 36.77 18.77 36.77C28.71 36.77 36.77 28.71 36.77 18.77C36.77 8.83 28.71 0.77 18.77 0.77" stroke="#0056FE" stroke-opacity="1.000000" stroke-width="1.542857" stroke-linejoin="round" stroke-linecap="round"/>
</svg>
