<svg width="117.000000" height="46.000000" viewBox="0 0 117 46" fill="none" xmlns="http://www.w3.org/2000/svg" xmlns:xlink="http://www.w3.org/1999/xlink">
	<desc>
			Created with Pixso.
	</desc>
	<defs/>
	<path id="Vector" d="M27.06 0.58L27.06 44.96C27.06 45.06 27.04 45.16 26.99 45.25C26.94 45.34 26.87 45.42 26.79 45.47C26.71 45.52 26.61 45.55 26.51 45.56C26.41 45.56 26.32 45.54 26.23 45.49L18.13 41.3C18.03 41.25 17.95 41.18 17.9 41.08C17.84 40.99 17.81 40.89 17.81 40.78L17.81 4.77C17.81 4.66 17.84 4.55 17.9 4.46C17.95 4.37 18.03 4.29 18.13 4.25L26.23 0.06C26.32 0.01 26.41 -0.01 26.51 0C26.61 0 26.7 0.03 26.79 0.08C26.87 0.13 26.94 0.21 26.99 0.29C27.03 0.38 27.06 0.48 27.06 0.58L27.06 0.58ZM90.92 16.49L90.92 44.97C90.92 45.07 90.9 45.16 90.85 45.25C90.8 45.34 90.73 45.41 90.65 45.46C90.57 45.51 90.48 45.55 90.38 45.55C90.28 45.55 90.19 45.53 90.1 45.49L81.99 41.3C81.89 41.25 81.81 41.18 81.76 41.08C81.7 40.99 81.67 40.89 81.67 40.78L81.67 16.49C81.67 16.33 81.73 16.19 81.84 16.08C81.94 15.97 82.09 15.91 82.24 15.91L90.36 15.91C90.51 15.91 90.65 15.97 90.76 16.08C90.86 16.19 90.92 16.33 90.92 16.49ZM79.81 43.97L79.66 44.09C78.72 44.8 77.66 45.31 76.54 45.6C75.17 45.96 73.74 46 72.36 45.71C70.98 45.41 69.68 44.8 68.56 43.91C67.45 43.01 66.55 41.87 65.92 40.56C65.3 39.26 64.98 37.82 64.98 36.36L64.98 16.57C64.98 16.41 65.04 16.26 65.15 16.16C65.25 16.05 65.39 15.98 65.54 15.98L70.75 16.07L73.65 16.07C73.68 16.07 73.71 16.07 73.75 16.07C73.87 16.1 73.99 16.17 74.07 16.27C74.15 16.38 74.2 16.5 74.2 16.64L74.2 23.52C74.2 23.56 74.2 23.59 74.2 23.63L74.2 39.14C74.2 40.32 74.65 41.44 75.46 42.27C76.26 43.1 77.35 43.57 78.49 43.57L79.61 43.57C79.65 43.56 79.68 43.56 79.72 43.57C79.75 43.58 79.79 43.6 79.81 43.63C79.84 43.66 79.86 43.69 79.87 43.72C79.88 43.76 79.89 43.8 79.88 43.84C79.87 43.89 79.85 43.93 79.81 43.97ZM15.77 19.5C15.27 19.29 14.73 19.19 14.18 19.19L13.53 19.19C12.97 19.19 12.41 19.3 11.89 19.53C11.36 19.75 10.89 20.08 10.49 20.49C10.09 20.9 9.77 21.39 9.56 21.93C9.34 22.47 9.23 23.05 9.24 23.63L9.24 39.14C9.24 40.32 9.69 41.44 10.5 42.27C11.31 43.1 12.4 43.57 13.53 43.57L14.66 43.57C14.69 43.56 14.73 43.57 14.76 43.58C14.8 43.59 14.83 43.61 14.85 43.64C14.88 43.67 14.89 43.7 14.9 43.74C14.91 43.78 14.91 43.82 14.9 43.85C14.89 43.9 14.86 43.94 14.83 43.98L14.67 44.1C13.29 45.13 11.66 45.75 9.96 45.89C8.26 46.02 6.56 45.67 5.04 44.87C3.52 44.08 2.25 42.86 1.36 41.36C0.47 39.86 0 38.14 0 36.38L0 25.77C0 20.5 4.18 16.04 9.3 16.07C10.57 16.08 11.82 16.35 12.97 16.88C14.13 17.41 15.17 18.18 16.02 19.14C16.05 19.17 16.07 19.22 16.07 19.27C16.08 19.32 16.06 19.37 16.03 19.41C16 19.46 15.96 19.49 15.92 19.5C15.87 19.52 15.82 19.52 15.77 19.5ZM116.99 35.96C116.99 38.57 116.3 40.74 114.92 42.45C114.72 42.7 114.52 42.93 114.28 43.16C112.65 44.8 110.55 45.68 108.01 45.85C108 45.85 107.99 45.86 107.98 45.86C107.98 45.86 107.97 45.85 107.96 45.85L107.72 45.87L106.74 45.87C105.1 45.81 103.47 45.6 101.86 45.25L101.63 45.2C100.45 44.88 99.29 44.48 98.16 43.99C97.75 43.81 97.41 43.5 97.16 43.12C96.91 42.74 96.77 42.3 96.76 41.83L96.53 36.3C96.53 36.26 96.54 36.21 96.55 36.17C96.57 36.14 96.59 36.1 96.62 36.07C96.65 36.04 96.68 36.02 96.72 36C96.75 35.98 96.79 35.98 96.83 35.98C97.06 35.98 97.27 36.11 97.38 36.32C98.5 38.54 99.98 40.57 101.74 42.3C103.23 43.76 104.79 44.63 106.42 44.9C106.79 44.97 107.18 45 107.56 45C107.75 45 107.96 45 108.13 44.97L108.23 44.97C108.29 44.97 108.36 44.97 108.43 44.95C108.79 44.92 109.14 44.84 109.47 44.72C109.62 44.68 109.76 44.63 109.9 44.57C110 44.52 110.11 44.48 110.21 44.42C110.84 44.1 111.4 43.64 111.84 43.07C111.93 42.97 112.02 42.86 112.09 42.75C112.17 42.63 112.25 42.51 112.31 42.4C112.56 41.8 112.68 41.16 112.67 40.5C112.7 39.83 112.57 39.15 112.27 38.54C111.98 37.93 111.54 37.41 111 37.03C109.53 36.07 107.92 35.35 106.23 34.93C104.71 34.52 103.23 34 101.79 33.37C101.05 33.02 100.35 32.59 99.7 32.08C99.52 31.94 99.33 31.78 99.15 31.63C97.46 30.19 96.62 27.96 96.62 24.93C96.61 23.96 96.76 22.99 97.06 22.07C97.1 21.95 97.14 21.84 97.19 21.73C97.33 21.36 97.49 20.99 97.67 20.64C97.67 20.62 97.69 20.59 97.71 20.57C98.11 19.84 98.61 19.18 99.18 18.59C100.4 17.33 101.96 16.49 103.66 16.17C104.48 16.01 105.32 15.92 106.16 15.93C106.63 15.93 107.13 15.96 107.62 16C108.74 16.11 109.85 16.33 110.93 16.66C112.32 17.09 113.69 17.65 115 18.31C115 18.32 115.01 18.32 115.01 18.33C115.01 18.33 115.02 18.34 115.02 18.35L115.13 21.74L115.22 24.48C115.22 24.52 115.22 24.56 115.2 24.6C115.19 24.64 115.17 24.67 115.14 24.7C115.11 24.73 115.08 24.75 115.04 24.77C115.01 24.78 114.97 24.79 114.93 24.79C114.83 24.79 114.72 24.76 114.63 24.71C114.54 24.65 114.47 24.58 114.42 24.48C113.7 23.14 112.88 21.86 111.97 20.66C111.55 20.12 111.11 19.59 110.65 19.1L110.54 18.99C109.13 17.53 107.6 16.81 105.94 16.81C104.29 16.81 103 17.2 102.09 17.99C101.65 18.37 101.3 18.86 101.06 19.41C100.83 19.95 100.72 20.55 100.74 21.14C100.72 21.75 100.86 22.36 101.15 22.89C101.44 23.43 101.86 23.87 102.37 24.18C103.62 24.96 104.98 25.54 106.39 25.91L107.19 26.13C108.34 26.45 109.11 26.68 109.53 26.82C110.02 26.99 110.65 27.21 111.38 27.5C112.02 27.74 112.63 28.05 113.2 28.42C113.72 28.78 114.22 29.18 114.69 29.62C115.19 30.08 115.61 30.62 115.92 31.23C116.67 32.68 117.04 34.31 116.99 35.96L116.99 35.96ZM60.36 31.27L60.36 30.94L60.36 30.5L60.36 30.18C60.36 29.95 60.34 29.72 60.32 29.5L60.29 29.25L60.27 29.05C60.27 28.93 60.25 28.81 60.22 28.68C60.22 28.56 60.18 28.44 60.16 28.32C60.14 28.2 60.13 28.16 60.12 28.08L60.06 27.75C60 27.46 59.92 27.16 59.84 26.87L59.75 26.54L59.64 26.19C59.6 26.07 59.56 25.96 59.52 25.85C59.44 25.62 59.36 25.4 59.27 25.17L59.16 24.91C59.1 24.77 59.04 24.63 58.97 24.5C58.9 24.38 58.81 24.16 58.72 24C58.5 23.54 58.24 23.09 57.96 22.66C57.85 22.49 57.74 22.32 57.62 22.16L57.45 21.91L57.34 21.77C57 21.31 56.63 20.87 56.23 20.45L56.02 20.23C55.76 19.97 55.5 19.72 55.23 19.49L55.17 19.43C55.01 19.3 54.85 19.16 54.69 19.02L54.41 18.81C54.14 18.59 53.85 18.39 53.56 18.2C53.46 18.14 53.36 18.08 53.26 18.02L52.96 17.84C52.86 17.78 52.76 17.72 52.66 17.67C52.56 17.62 52.46 17.56 52.35 17.5L52.04 17.34C51.93 17.29 51.83 17.24 51.72 17.2L51.4 17.05C51.18 16.96 50.97 16.87 50.75 16.79L50.41 16.67L50.08 16.56L49.74 16.46C49.51 16.39 49.28 16.33 49.05 16.28L48.77 16.22L48.35 16.13C48.11 16.09 47.87 16.05 47.63 16.02L47.28 15.98L46.75 15.93L45.16 15.93C42.88 16.03 40.67 16.68 38.68 17.83C36.69 18.97 35 20.58 33.72 22.52C32.44 24.46 31.62 26.68 31.33 29.01C31.03 31.34 31.27 33.7 32.02 35.92C32.77 38.13 34.02 40.14 35.65 41.77C37.29 43.4 39.27 44.61 41.44 45.31C43.61 46.01 45.91 46.18 48.16 45.79C50.4 45.41 52.53 44.5 54.37 43.11L54.6 42.93C54.79 42.78 54.97 42.64 55.15 42.49C55.21 42.44 55.26 42.4 55.32 42.34L55.46 42.2L55.51 42.16C56.57 41.19 57.48 40.06 58.23 38.81C58.24 38.79 58.24 38.77 58.23 38.76C58.22 38.75 58.22 38.75 58.21 38.74C58.2 38.74 58.19 38.74 58.18 38.74C58.17 38.74 58.16 38.74 58.16 38.75L58.1 38.79L57.65 39.22C56.71 40.19 55.59 40.95 54.36 41.47C53.14 41.98 51.82 42.23 50.49 42.21C48.93 42.21 47.4 41.83 46.01 41.1C44.62 40.38 43.41 39.32 42.5 38.02C41.25 36.27 40.58 34.16 40.58 31.99L40.58 31.28L60.36 31.28L60.36 31.27ZM45.55 17.3C46.86 17.31 48.12 17.85 49.05 18.8C49.97 19.76 50.49 21.06 50.49 22.41L50.49 30.69L40.6 30.69L40.6 22.41C40.6 21.06 41.12 19.76 42.05 18.8C42.98 17.84 44.24 17.31 45.55 17.3Z" fill="#0056FE" fill-opacity="1.000000" fill-rule="nonzero"/>
</svg>
