<svg width="45.464844" height="17.329102" viewBox="0 0 45.4648 17.3291" fill="none" xmlns="http://www.w3.org/2000/svg" xmlns:xlink="http://www.w3.org/1999/xlink">
	<desc>
			Created with Pixso.
	</desc>
	<defs/>
	<path id="Vector" d="M10.51 0.22L10.51 16.94C10.51 16.97 10.5 17.01 10.49 17.04C10.47 17.08 10.44 17.11 10.41 17.13C10.38 17.15 10.34 17.16 10.3 17.16C10.26 17.16 10.22 17.15 10.19 17.13L7.04 15.56C7 15.54 6.97 15.51 6.95 15.47C6.93 15.44 6.92 15.4 6.92 15.36L6.92 1.79C6.92 1.75 6.93 1.71 6.95 1.68C6.97 1.64 7 1.61 7.04 1.6L10.19 0.02C10.22 0 10.26 -0.01 10.3 0C10.34 0 10.37 0.01 10.41 0.03C10.44 0.05 10.47 0.08 10.48 0.11C10.5 0.14 10.51 0.18 10.51 0.22L10.51 0.22ZM35.33 6.21L35.33 16.94C35.33 16.97 35.32 17.01 35.3 17.04C35.28 17.08 35.25 17.1 35.22 17.12C35.19 17.14 35.16 17.16 35.12 17.16C35.08 17.16 35.04 17.15 35.01 17.13L31.85 15.56C31.82 15.54 31.79 15.51 31.77 15.47C31.75 15.44 31.73 15.4 31.73 15.36L31.73 6.21C31.73 6.15 31.76 6.09 31.8 6.05C31.84 6.01 31.9 5.99 31.95 5.99L35.11 5.99C35.17 5.99 35.22 6.01 35.26 6.05C35.31 6.09 35.33 6.15 35.33 6.21ZM31.01 16.56L30.95 16.61C30.59 16.87 30.17 17.07 29.74 17.17C29.21 17.31 28.65 17.33 28.11 17.21C27.58 17.1 27.07 16.87 26.64 16.54C26.21 16.2 25.86 15.77 25.61 15.28C25.37 14.79 25.25 14.24 25.25 13.7L25.25 6.24C25.25 6.18 25.27 6.12 25.31 6.08C25.35 6.04 25.41 6.02 25.47 6.02L27.49 6.05L28.62 6.05C28.63 6.05 28.64 6.05 28.65 6.05C28.7 6.06 28.75 6.09 28.78 6.13C28.81 6.17 28.83 6.21 28.83 6.27L28.83 8.86C28.83 8.87 28.83 8.89 28.83 8.9L28.83 14.74C28.83 15.18 29.01 15.61 29.32 15.92C29.63 16.23 30.06 16.41 30.5 16.41L30.93 16.41C30.95 16.41 30.96 16.41 30.98 16.41C30.99 16.41 31 16.42 31.01 16.43C31.02 16.44 31.03 16.45 31.03 16.47C31.04 16.48 31.04 16.5 31.04 16.51C31.03 16.53 31.03 16.55 31.01 16.56ZM6.13 7.34C5.93 7.27 5.72 7.22 5.51 7.23L5.26 7.23C5.04 7.23 4.82 7.27 4.62 7.35C4.41 7.44 4.23 7.56 4.07 7.72C3.92 7.87 3.8 8.06 3.71 8.26C3.63 8.46 3.58 8.68 3.58 8.9L3.58 14.74C3.59 15.18 3.76 15.61 4.08 15.92C4.39 16.23 4.81 16.41 5.26 16.41L5.69 16.41C5.71 16.41 5.72 16.41 5.73 16.41C5.75 16.42 5.76 16.43 5.77 16.44C5.78 16.45 5.78 16.46 5.79 16.47C5.79 16.49 5.79 16.5 5.79 16.52C5.78 16.54 5.77 16.55 5.76 16.56L5.7 16.61C5.16 17 4.53 17.23 3.87 17.28C3.21 17.33 2.55 17.2 1.96 16.9C1.37 16.6 0.87 16.14 0.52 15.58C0.18 15.01 0 14.36 0 13.7L0 9.71C0 7.72 1.62 6.04 3.61 6.05C4.1 6.05 4.59 6.16 5.04 6.36C5.49 6.55 5.89 6.84 6.22 7.21C6.24 7.22 6.24 7.24 6.24 7.26C6.24 7.28 6.24 7.29 6.23 7.31C6.22 7.33 6.2 7.34 6.18 7.34C6.16 7.35 6.14 7.35 6.13 7.34ZM45.46 13.54C45.46 14.53 45.19 15.34 44.66 15.99C44.58 16.08 44.5 16.17 44.41 16.25C43.77 16.87 42.96 17.21 41.97 17.27C41.96 17.27 41.96 17.27 41.96 17.27C41.96 17.27 41.95 17.27 41.95 17.27L41.86 17.28L41.47 17.28C40.84 17.25 40.2 17.18 39.58 17.04L39.49 17.02C39.03 16.91 38.58 16.75 38.14 16.57C37.98 16.5 37.85 16.39 37.75 16.24C37.66 16.1 37.6 15.93 37.6 15.76L37.51 13.67C37.51 13.66 37.51 13.64 37.52 13.62C37.52 13.61 37.53 13.6 37.54 13.58C37.55 13.57 37.57 13.57 37.58 13.56C37.59 13.55 37.61 13.55 37.63 13.55C37.72 13.55 37.8 13.6 37.84 13.68C38.27 14.52 38.85 15.28 39.53 15.93C40.11 16.48 40.72 16.81 41.35 16.91C41.5 16.94 41.65 16.95 41.79 16.95C41.87 16.95 41.95 16.95 42.02 16.94L42.05 16.94C42.08 16.94 42.11 16.94 42.13 16.93C42.27 16.92 42.41 16.89 42.54 16.84C42.59 16.83 42.65 16.81 42.7 16.79C42.74 16.77 42.78 16.75 42.82 16.73C43.07 16.61 43.28 16.44 43.46 16.22C43.49 16.18 43.52 16.14 43.55 16.1C43.58 16.06 43.61 16.01 43.64 15.97C43.74 15.75 43.78 15.5 43.78 15.26C43.79 15 43.74 14.75 43.63 14.52C43.51 14.29 43.34 14.09 43.13 13.95C42.56 13.58 41.93 13.32 41.28 13.16C40.69 13 40.11 12.81 39.55 12.57C39.26 12.44 38.99 12.27 38.74 12.08C38.67 12.03 38.6 11.97 38.52 11.91C37.87 11.37 37.54 10.53 37.54 9.39C37.54 9.02 37.6 8.66 37.71 8.31C37.73 8.27 37.75 8.23 37.76 8.18C37.82 8.04 37.88 7.91 37.95 7.77C37.95 7.76 37.96 7.75 37.96 7.75C38.12 7.47 38.32 7.22 38.54 7C39.01 6.53 39.62 6.21 40.28 6.09C40.6 6.03 40.92 6 41.25 6C41.43 6 41.63 6.01 41.82 6.03C42.25 6.07 42.68 6.15 43.1 6.27C43.65 6.44 44.17 6.65 44.68 6.9C44.68 6.9 44.69 6.9 44.69 6.9C44.69 6.9 44.69 6.91 44.69 6.91L44.74 8.19L44.77 9.22C44.77 9.24 44.77 9.25 44.76 9.26C44.76 9.28 44.75 9.29 44.74 9.3C44.73 9.31 44.72 9.32 44.7 9.33C44.69 9.33 44.67 9.34 44.66 9.34C44.62 9.34 44.58 9.33 44.54 9.3C44.51 9.28 44.48 9.25 44.46 9.22C44.18 8.71 43.86 8.23 43.51 7.78C43.34 7.58 43.17 7.38 42.99 7.19L42.95 7.15C42.4 6.6 41.81 6.33 41.16 6.33C40.52 6.33 40.02 6.48 39.67 6.77C39.5 6.92 39.36 7.1 39.27 7.31C39.18 7.51 39.14 7.74 39.15 7.96C39.14 8.19 39.19 8.42 39.3 8.62C39.41 8.82 39.58 8.99 39.78 9.11C40.26 9.4 40.79 9.62 41.34 9.76L41.65 9.84C42.1 9.96 42.4 10.05 42.56 10.1C42.75 10.16 42.99 10.25 43.28 10.36C43.53 10.45 43.76 10.56 43.99 10.7C44.19 10.84 44.38 10.99 44.57 11.16C44.76 11.33 44.92 11.53 45.04 11.76C45.33 12.31 45.48 12.92 45.46 13.54L45.46 13.54ZM23.45 11.78L23.45 11.65L23.45 11.49L23.45 11.37C23.45 11.28 23.44 11.19 23.43 11.11L23.42 11.01L23.42 10.94C23.42 10.9 23.41 10.85 23.4 10.8C23.4 10.76 23.38 10.71 23.38 10.67C23.37 10.62 23.36 10.61 23.36 10.58L23.33 10.45C23.31 10.34 23.28 10.23 23.25 10.12L23.22 9.99L23.17 9.86C23.16 9.82 23.14 9.78 23.13 9.73C23.09 9.65 23.06 9.56 23.03 9.48L22.99 9.38C22.96 9.33 22.94 9.28 22.91 9.23C22.89 9.18 22.85 9.1 22.82 9.04C22.73 8.87 22.63 8.7 22.52 8.54C22.48 8.47 22.43 8.41 22.39 8.34L22.32 8.25L22.28 8.2C22.15 8.02 22 7.86 21.85 7.7L21.76 7.62C21.67 7.52 21.56 7.43 21.46 7.34L21.43 7.32C21.37 7.27 21.31 7.21 21.25 7.16L21.14 7.08C21.03 7 20.92 6.93 20.81 6.86C20.77 6.83 20.73 6.81 20.69 6.79L20.58 6.72C20.54 6.7 20.5 6.67 20.46 6.65C20.42 6.63 20.38 6.61 20.34 6.59L20.22 6.53C20.18 6.51 20.14 6.49 20.09 6.48L19.97 6.42C19.89 6.39 19.8 6.35 19.72 6.32L19.59 6.28L19.46 6.24L19.33 6.2C19.24 6.17 19.15 6.15 19.06 6.13L18.95 6.11L18.79 6.08C18.69 6.06 18.6 6.04 18.51 6.03L18.37 6.02L18.16 6L17.54 6C16.66 6.04 15.8 6.28 15.03 6.71C14.25 7.14 13.59 7.75 13.1 8.48C12.6 9.21 12.29 10.05 12.17 10.93C12.06 11.8 12.15 12.69 12.44 13.53C12.73 14.36 13.22 15.12 13.85 15.73C14.49 16.35 15.26 16.8 16.1 17.07C16.94 17.33 17.84 17.39 18.71 17.25C19.58 17.1 20.41 16.76 21.12 16.24L21.21 16.17C21.29 16.12 21.36 16.06 21.43 16C21.45 15.99 21.47 15.97 21.49 15.95L21.55 15.9L21.57 15.88C21.98 15.51 22.33 15.09 22.62 14.62C22.63 14.61 22.63 14.6 22.62 14.6C22.62 14.6 22.62 14.59 22.62 14.59C22.61 14.59 22.61 14.59 22.6 14.59C22.6 14.59 22.6 14.59 22.59 14.59L22.58 14.61L22.4 14.77C22.03 15.14 21.6 15.42 21.12 15.62C20.65 15.81 20.13 15.91 19.62 15.9C19.01 15.9 18.41 15.76 17.87 15.48C17.33 15.21 16.87 14.81 16.51 14.32C16.03 13.66 15.77 12.87 15.77 12.05L15.77 11.78L23.45 11.78L23.45 11.78ZM17.7 6.52C18.21 6.52 18.7 6.72 19.06 7.08C19.42 7.44 19.62 7.93 19.62 8.44L19.62 11.56L15.77 11.56L15.77 8.44C15.77 7.93 15.98 7.44 16.34 7.08C16.7 6.72 17.19 6.52 17.7 6.52Z" fill="#FFFFFF" fill-opacity="1.000000" fill-rule="evenodd"/>
</svg>
