<svg width="149.218750" height="63.250977" viewBox="0 0 149.219 63.251" fill="none" xmlns="http://www.w3.org/2000/svg" xmlns:xlink="http://www.w3.org/1999/xlink">
	<desc>
			Created with Pixso.
	</desc>
	<defs/>
	<path id="Vector" d="M34.51 0.8L34.51 61.83C34.51 61.97 34.49 62.1 34.42 62.23C34.36 62.35 34.28 62.45 34.17 62.52C34.06 62.6 33.94 62.64 33.82 62.64C33.69 62.65 33.57 62.62 33.46 62.55L23.12 56.79C23 56.72 22.9 56.62 22.83 56.5C22.75 56.37 22.72 56.22 22.72 56.07L22.72 6.56C22.72 6.41 22.75 6.26 22.83 6.13C22.9 6.01 23 5.91 23.12 5.84L33.45 0.09C33.56 0.02 33.69 -0.01 33.81 0C33.94 0 34.06 0.04 34.16 0.11C34.27 0.18 34.36 0.29 34.42 0.41C34.48 0.53 34.51 0.66 34.51 0.8L34.51 0.8ZM115.96 22.67L115.96 61.83C115.96 61.97 115.93 62.11 115.87 62.22C115.81 62.34 115.72 62.44 115.62 62.52C115.51 62.59 115.39 62.63 115.27 62.63C115.15 62.64 115.02 62.61 114.91 62.55L104.56 56.79C104.44 56.72 104.34 56.62 104.27 56.5C104.2 56.37 104.16 56.22 104.16 56.07L104.16 22.67C104.16 22.46 104.24 22.26 104.37 22.11C104.51 21.96 104.69 21.87 104.88 21.87L115.24 21.87C115.43 21.87 115.61 21.96 115.75 22.11C115.88 22.26 115.96 22.46 115.96 22.67ZM101.79 60.46L101.59 60.63C100.4 61.6 99.05 62.3 97.61 62.7C95.87 63.2 94.05 63.25 92.29 62.85C90.52 62.45 88.87 61.6 87.44 60.37C86.02 59.15 84.87 57.58 84.08 55.78C83.29 53.98 82.88 52.01 82.88 50L82.88 22.78C82.88 22.57 82.95 22.37 83.09 22.21C83.22 22.07 83.4 21.98 83.59 21.98L90.23 22.1L93.93 22.1C93.97 22.09 94.01 22.09 94.06 22.1C94.22 22.14 94.36 22.23 94.47 22.38C94.58 22.52 94.63 22.7 94.63 22.88L94.63 32.34C94.63 32.4 94.63 32.45 94.63 32.5L94.63 53.82C94.63 55.44 95.21 56.98 96.24 58.12C97.26 59.26 98.65 59.91 100.1 59.91L101.53 59.91C101.58 59.9 101.63 59.9 101.67 59.91C101.72 59.93 101.76 59.96 101.79 59.99C101.83 60.03 101.85 60.07 101.87 60.12C101.88 60.17 101.89 60.23 101.88 60.28C101.87 60.35 101.84 60.41 101.79 60.46ZM20.12 26.82C19.47 26.53 18.78 26.38 18.09 26.38L17.26 26.38C16.54 26.38 15.83 26.54 15.16 26.85C14.5 27.16 13.89 27.61 13.38 28.18C12.87 28.74 12.47 29.42 12.19 30.16C11.92 30.9 11.78 31.69 11.78 32.5L11.78 53.82C11.78 55.44 12.36 56.99 13.39 58.12C14.42 59.26 15.81 59.9 17.26 59.9L18.69 59.9C18.74 59.9 18.79 59.9 18.83 59.92C18.87 59.94 18.91 59.97 18.94 60.01C18.97 60.05 19 60.1 19.01 60.15C19.02 60.2 19.02 60.25 19 60.3C18.99 60.37 18.96 60.42 18.91 60.47L18.71 60.64C16.95 62.06 14.87 62.91 12.7 63.1C10.54 63.29 8.36 62.8 6.43 61.7C4.49 60.61 2.87 58.93 1.73 56.87C0.59 54.81 0 52.44 0 50.02L0 35.44C0 28.18 5.34 22.06 11.86 22.1C13.48 22.11 15.07 22.49 16.54 23.21C18.02 23.94 19.34 24.99 20.44 26.31C20.48 26.37 20.5 26.43 20.5 26.5C20.5 26.57 20.48 26.64 20.45 26.7C20.41 26.75 20.36 26.8 20.3 26.82C20.24 26.84 20.18 26.84 20.12 26.82ZM149.21 49.44C149.21 53.04 148.33 56.02 146.57 58.37C146.31 58.71 146.06 59.03 145.75 59.34C143.67 61.6 141 62.81 137.75 63.05C137.74 63.05 137.73 63.06 137.72 63.06C137.71 63.06 137.7 63.05 137.69 63.05L137.39 63.07L136.13 63.07C134.04 62.99 131.96 62.71 129.92 62.22L129.62 62.15C128.11 61.72 126.63 61.16 125.19 60.49C124.68 60.24 124.23 59.82 123.91 59.3C123.6 58.77 123.42 58.16 123.4 57.53L123.12 49.91C123.12 49.86 123.12 49.8 123.14 49.74C123.16 49.69 123.19 49.64 123.23 49.6C123.26 49.56 123.3 49.53 123.35 49.5C123.4 49.48 123.45 49.47 123.5 49.47C123.79 49.47 124.06 49.65 124.19 49.94C125.63 53 127.51 55.78 129.76 58.17C131.66 60.18 133.65 61.37 135.72 61.75C136.2 61.83 136.69 61.88 137.18 61.88C137.42 61.88 137.69 61.88 137.91 61.84L138.03 61.84C138.12 61.84 138.2 61.83 138.29 61.81C138.74 61.77 139.19 61.66 139.62 61.5C139.81 61.44 139.98 61.37 140.16 61.28C140.29 61.22 140.43 61.16 140.56 61.09C141.36 60.64 142.07 60 142.64 59.22C142.75 59.08 142.86 58.93 142.96 58.78C143.06 58.62 143.16 58.46 143.24 58.31C143.56 57.48 143.71 56.59 143.7 55.7C143.74 54.76 143.56 53.84 143.19 53C142.82 52.16 142.26 51.45 141.57 50.92C139.69 49.59 137.64 48.62 135.48 48.03C133.55 47.47 131.66 46.76 129.82 45.89C128.88 45.41 127.99 44.81 127.16 44.11C126.92 43.92 126.69 43.7 126.45 43.49C124.3 41.51 123.23 38.45 123.23 34.29C123.22 32.95 123.41 31.62 123.79 30.34C123.84 30.19 123.89 30.04 123.95 29.88C124.13 29.37 124.34 28.87 124.57 28.38C124.57 28.35 124.6 28.32 124.61 28.28C125.13 27.29 125.76 26.37 126.49 25.56C128.05 23.84 130.04 22.68 132.2 22.24C133.25 22.01 134.33 21.9 135.4 21.91C136 21.91 136.63 21.94 137.26 22C138.68 22.16 140.1 22.46 141.47 22.91C143.26 23.51 145 24.27 146.66 25.18C146.67 25.19 146.68 25.19 146.68 25.2C146.69 25.21 146.69 25.22 146.69 25.23L146.84 29.89L146.95 33.67C146.95 33.72 146.94 33.78 146.93 33.83C146.91 33.88 146.88 33.93 146.85 33.97C146.81 34.01 146.77 34.04 146.73 34.06C146.68 34.08 146.63 34.09 146.58 34.09C146.45 34.09 146.32 34.05 146.2 33.98C146.09 33.9 146 33.79 145.93 33.66C145.01 31.82 143.96 30.07 142.8 28.41C142.27 27.66 141.71 26.95 141.12 26.26L140.98 26.11C139.18 24.11 137.22 23.11 135.12 23.11C133.01 23.11 131.37 23.65 130.2 24.73C129.64 25.27 129.19 25.93 128.89 26.68C128.6 27.44 128.46 28.25 128.49 29.07C128.46 29.91 128.64 30.75 129.01 31.48C129.37 32.22 129.91 32.83 130.56 33.25C132.16 34.32 133.89 35.12 135.69 35.62L136.7 35.93C138.17 36.38 139.16 36.69 139.69 36.88C140.32 37.11 141.12 37.42 142.06 37.82C142.87 38.15 143.64 38.57 144.37 39.08C145.04 39.58 145.68 40.13 146.28 40.74C146.91 41.36 147.44 42.11 147.84 42.94C148.79 44.94 149.27 47.18 149.21 49.45L149.21 49.44ZM76.99 43L76.99 42.54L76.99 41.94L76.99 41.5C76.99 41.19 76.96 40.87 76.93 40.56L76.9 40.22L76.87 39.95C76.87 39.78 76.84 39.61 76.8 39.45C76.8 39.28 76.76 39.11 76.73 38.94C76.7 38.78 76.69 38.73 76.67 38.61L76.59 38.16C76.52 37.76 76.43 37.35 76.32 36.96L76.2 36.49L76.06 36.01C76.01 35.85 75.97 35.7 75.91 35.54C75.81 35.23 75.7 34.92 75.59 34.61L75.45 34.25C75.38 34.06 75.3 33.87 75.21 33.69C75.12 33.52 75.01 33.22 74.9 33C74.61 32.37 74.28 31.76 73.93 31.17C73.79 30.93 73.64 30.7 73.49 30.46L73.27 30.13L73.13 29.94C72.7 29.3 72.22 28.7 71.72 28.13L71.44 27.82C71.12 27.46 70.78 27.12 70.43 26.8L70.36 26.72C70.16 26.53 69.95 26.34 69.75 26.16L69.4 25.86C69.05 25.57 68.68 25.29 68.31 25.03C68.18 24.95 68.06 24.86 67.93 24.78L67.55 24.53C67.42 24.45 67.29 24.37 67.16 24.3C67.03 24.23 66.9 24.14 66.77 24.07L66.37 23.85C66.24 23.78 66.1 23.71 65.96 23.65L65.56 23.45C65.28 23.32 65 23.2 64.72 23.09L64.3 22.92L63.87 22.77L63.44 22.63C63.15 22.54 62.85 22.46 62.56 22.38L62.21 22.3L61.66 22.19C61.36 22.13 61.06 22.08 60.75 22.04L60.3 21.97L59.63 21.91L57.59 21.91C54.69 22.05 51.87 22.94 49.33 24.51C46.8 26.08 44.63 28.29 43 30.96C41.38 33.64 40.33 36.69 39.96 39.89C39.58 43.09 39.89 46.35 40.84 49.39C41.8 52.44 43.38 55.19 45.47 57.43C47.56 59.68 50.08 61.35 52.85 62.31C55.62 63.27 58.56 63.5 61.42 62.97C64.28 62.45 67 61.18 69.34 59.28L69.64 59.04C69.87 58.83 70.11 58.63 70.33 58.43C70.41 58.36 70.48 58.3 70.56 58.22L70.74 58.03L70.8 57.98C72.15 56.63 73.31 55.08 74.26 53.37C74.27 53.34 74.28 53.32 74.26 53.29C74.25 53.29 74.25 53.28 74.24 53.27C74.23 53.27 74.21 53.27 74.2 53.27C74.19 53.27 74.18 53.27 74.17 53.28L74.11 53.33L73.52 53.93C72.33 55.26 70.91 56.31 69.34 57.02C67.77 57.73 66.09 58.07 64.4 58.04C62.41 58.04 60.45 57.52 58.68 56.52C56.91 55.52 55.37 54.07 54.2 52.28C52.61 49.88 51.75 46.98 51.76 43.99L51.76 43.01L76.99 43.01L76.99 43ZM58.09 23.8C59.77 23.8 61.37 24.54 62.55 25.86C63.74 27.18 64.4 28.96 64.4 30.82L64.4 42.2L51.78 42.2L51.78 30.82C51.78 28.96 52.44 27.17 53.63 25.85C54.81 24.54 56.42 23.8 58.09 23.8Z" fill="#FFFFFF" fill-opacity="1.000000" fill-rule="evenodd"/>
</svg>
