<svg width="89.572266" height="24.000977" viewBox="0 0 89.5723 24.001" fill="none" xmlns="http://www.w3.org/2000/svg" xmlns:xlink="http://www.w3.org/1999/xlink">
	<desc>
			Created with Pixso.
	</desc>
	<defs/>
	<path id="Fill-1" d="M0 0L0 22.4L22.4 0L0 0Z" fill="#92CFAE" fill-opacity="1.000000" fill-rule="evenodd"/>
	<path id="Fill-2" d="M1.6 24L24 24L24 1.6L1.6 24Z" fill="#2A8288" fill-opacity="1.000000" fill-rule="evenodd"/>
	<path id="Fill-3" d="M36.58 11.47C39.18 11.47 40.57 10.2 40.57 7.82L40.57 7.68C40.57 5.13 39.11 4.12 36.58 4.12L33.87 4.12L33.87 11.47L36.58 11.47ZM28.57 0L36.71 0C42.44 0 45.71 2.58 45.71 7.65L45.71 7.78C45.71 12.85 42.25 15.27 36.87 15.27L33.87 15.27L33.87 24L28.57 24L28.57 0Z" fill="#000000" fill-opacity="1.000000" fill-rule="evenodd"/>
	<path id="Fill-5" d="M56.28 19.87C58.83 19.87 60.12 18.73 60.12 16.54L60.12 16.41C60.12 14.26 58.83 13.09 56.15 13.09L53.17 13.09L53.17 19.87L56.28 19.87ZM56.47 24L48 24L48 0L63.07 0L63.07 4.22L53.2 4.22L53.17 9.26L56.63 9.26C61.97 9.26 65.14 11.64 65.14 16.44L65.14 16.58C65.14 21.28 62.19 24 56.47 24Z" fill="#000000" fill-opacity="1.000000" fill-rule="evenodd"/>
	<path id="Fill-8" d="M69 0.03L74.57 0.03L74.57 10.35L83.17 0L89.08 0L79.35 11.36L89.57 24L83.07 24L74.57 13.24L74.57 24L69 24L69 0.03Z" fill="#000000" fill-opacity="1.000000" fill-rule="evenodd"/>
</svg>
